<?xml version="1.0" standalone="no"?>
<!DOCTYPE svg PUBLIC "-//W3C//DTD SVG 20010904//EN"
 "http://www.w3.org/TR/2001/REC-SVG-20010904/DTD/svg10.dtd">
<svg version="1.0" xmlns="http://www.w3.org/2000/svg"
 width="1024.000000pt" height="1024.000000pt" viewBox="0 0 1024.000000 1024.000000"
 preserveAspectRatio="xMidYMid meet">

<defs>
<clipPath id="roundedCorners" clipPathUnits="objectBoundingBox">
<rect x="0" y="0" width="1" height="1" rx="0.12" ry="0.12"/>
</clipPath>
</defs>

<g clip-path="url(#roundedCorners)" transform="translate(0.000000,1024.000000) scale(0.100000,-0.100000)"
fill="#000000" stroke="none">
<path d="M0 5120 l0 -5120 5120 0 5120 0 0 5120 0 5120 -5120 0 -5120 0 0
-5120z m5162 2773 c17 -15 18 -55 18 -850 0 -718 2 -833 14 -833 17 0 15 -7
52 300 13 118 43 358 64 534 22 175 40 320 40 321 0 2 7 11 16 19 21 22 57 20
79 -4 20 -22 28 61 -95 -950 -19 -159 -24 -227 -16 -232 6 -4 14 -4 17 0 9 10
226 893 362 1477 30 129 35 141 60 153 39 19 77 -5 77 -48 0 -36 -135 -608
-276 -1173 -57 -230 -105 -423 -107 -429 -1 -7 5 -13 14 -15 12 -3 45 74 149
349 223 592 278 730 292 739 34 22 88 -5 88 -42 0 -11 -25 -83 -56 -161 -209
-534 -354 -932 -342 -939 7 -5 16 -5 19 -1 7 8 239 455 507 977 268 524 269
525 305 525 28 0 57 -28 57 -55 0 -13 -52 -123 -116 -246 -64 -123 -199 -381
-299 -574 -356 -683 -358 -686 -346 -698 7 -7 14 -7 20 -1 5 5 130 189 278
409 376 557 385 569 412 573 29 5 61 -24 61 -56 0 -13 -20 -52 -44 -86 -49
-68 -380 -556 -523 -770 -74 -110 -91 -142 -81 -153 6 -8 14 -10 18 -6 4 4 30
37 59 71 68 84 495 588 788 929 128 150 242 277 254 284 18 9 26 7 48 -8 36
-27 37 -52 4 -94 -15 -20 -216 -255 -446 -522 -604 -703 -629 -733 -611 -748
13 -10 33 5 122 93 59 57 202 192 317 299 116 106 259 240 318 296 63 60 117
103 128 103 38 0 59 -19 59 -53 0 -29 -12 -44 -97 -121 -54 -49 -248 -228
-430 -399 -263 -245 -330 -313 -321 -324 6 -8 15 -10 22 -4 19 15 708 527
1028 764 168 125 314 227 324 227 43 0 69 -57 42 -92 -13 -16 -323 -248 -728
-544 -507 -372 -596 -437 -605 -445 -5 -6 -5 -13 2 -20 12 -12 20 -8 700 382
171 99 319 179 329 179 25 0 54 -30 54 -56 0 -14 -12 -32 -32 -47 -32 -23
-447 -261 -808 -462 -96 -54 -177 -99 -178 -101 -2 -1 0 -9 5 -17 9 -15 216
69 913 372 637 277 625 273 655 259 29 -13 41 -47 26 -75 -9 -19 -947 -427
-1376 -600 -88 -36 -163 -68 -167 -72 -4 -3 -4 -12 1 -19 8 -14 120 14 391 98
282 87 712 210 735 210 52 0 75 -67 33 -94 -13 -8 -140 -48 -283 -90 -594
-173 -772 -224 -802 -231 -37 -7 -45 -16 -34 -33 5 -8 103 5 371 53 201 35
561 98 800 140 239 42 448 75 464 73 51 -5 69 -75 25 -98 -19 -11 -98 -25
-834 -150 -359 -61 -778 -133 -812 -140 -1 0 0 -7 3 -15 8 -20 133 -20 394 0
226 17 669 45 748 47 43 1 58 -2 68 -17 19 -26 17 -52 -5 -74 -15 -15 -41 -19
-152 -25 -344 -18 -686 -37 -803 -46 -72 -6 -156 -10 -188 -10 -50 0 -58 -3
-58 -19 0 -23 50 -31 189 -31 53 0 201 -7 331 -15 129 -8 336 -19 460 -25 519
-26 671 -38 691 -56 25 -22 24 -56 -1 -79 -20 -18 -31 -18 -233 -6 -571 32
-740 42 -952 55 -407 26 -495 28 -495 12 0 -19 14 -21 548 -111 659 -111 622
-101 622 -156 0 -39 -26 -62 -64 -56 -17 3 -278 49 -580 101 -425 75 -551 93
-557 84 -11 -17 -1 -21 115 -53 54 -14 149 -42 210 -61 61 -20 329 -98 596
-175 673 -194 677 -196 695 -223 19 -29 6 -71 -24 -81 -19 -6 -395 98 -741
205 -69 21 -242 73 -385 115 -143 42 -311 92 -373 111 -128 38 -145 41 -140
18 2 -9 55 -37 138 -71 165 -68 780 -330 872 -372 52 -23 69 -36 74 -55 8 -34
0 -54 -29 -67 -20 -9 -63 7 -308 114 -156 69 -372 161 -479 205 -107 44 -221
92 -254 107 -46 20 -61 23 -72 14 -12 -10 6 -23 98 -74 380 -209 1346 -768
1361 -788 23 -30 9 -74 -28 -83 -28 -7 -92 27 -625 336 -853 493 -871 503
-883 490 -9 -9 -7 -16 13 -28 13 -10 176 -129 361 -267 185 -137 386 -286 447
-330 61 -44 116 -90 122 -101 25 -45 -20 -96 -66 -75 -28 12 -68 42 -567 414
-287 214 -391 287 -400 278 -8 -8 15 -35 89 -103 54 -51 189 -179 299 -283
110 -105 343 -325 518 -489 268 -251 317 -302 317 -325 0 -36 -32 -65 -62 -58
-27 7 -97 73 -1054 985 -149 142 -205 188 -212 179 -7 -9 18 -45 92 -133 55
-66 141 -170 191 -230 49 -60 175 -210 280 -334 105 -124 194 -234 198 -244 5
-11 1 -28 -8 -42 -24 -37 -64 -31 -107 14 -32 33 -662 787 -715 856 -14 17
-28 26 -38 23 -17 -7 31 -83 488 -777 465 -707 441 -668 431 -698 -11 -32 -58
-50 -81 -30 -21 17 -464 689 -895 1360 -33 51 -55 75 -64 71 -8 -3 -12 -8 -10
-12 2 -3 122 -244 266 -536 247 -501 261 -531 248 -555 -11 -19 -22 -25 -48
-25 l-35 0 -268 539 c-181 366 -271 536 -278 529 -6 -6 0 -37 22 -94 17 -46
59 -167 94 -269 35 -102 149 -419 253 -705 104 -286 192 -532 195 -547 13 -49
-45 -86 -86 -55 -9 6 -92 224 -186 482 -150 417 -401 1131 -401 1141 0 2 -7 4
-15 4 -11 0 -14 -7 -10 -22 61 -253 248 -1085 252 -1119 5 -40 2 -48 -18 -63
-28 -19 -40 -20 -62 -4 -19 14 -37 88 -188 761 -67 299 -97 417 -107 417 -10
0 -12 -8 -8 -27 3 -16 17 -138 31 -273 14 -135 43 -407 65 -605 61 -565 82
-785 76 -810 -10 -41 -88 -46 -100 -7 -5 17 -20 154 -76 697 -16 160 -39 378
-50 485 -12 107 -28 268 -38 358 -12 116 -20 162 -29 162 -10 0 -13 -118 -13
-594 0 -527 -2 -596 -16 -610 -20 -21 -53 -20 -76 1 -17 15 -18 47 -18 609 0
384 -4 595 -10 599 -5 3 -10 0 -10 -7 0 -7 -9 -89 -20 -183 -12 -93 -57 -471
-100 -839 -69 -587 -82 -672 -99 -689 -14 -14 -26 -18 -45 -13 -47 12 -50 37
-27 227 12 96 41 341 66 544 80 666 115 969 110 973 -10 10 -23 -11 -30 -45
-19 -103 -251 -1068 -265 -1100 -21 -51 -100 -32 -100 24 0 13 20 104 44 201
53 208 201 831 211 882 4 19 9 43 11 53 3 10 0 17 -8 17 -7 0 -25 -35 -41 -83
-86 -247 -563 -1517 -576 -1530 -14 -14 -58 -12 -76 3 -31 26 -28 36 240 735
140 365 335 898 335 917 0 4 -6 8 -13 8 -7 0 -32 -39 -55 -87 -81 -173 -477
-943 -494 -963 -10 -11 -28 -20 -40 -20 -26 0 -58 27 -58 49 0 9 59 129 130
266 259 497 412 807 402 817 -10 10 -55 -56 -709 -1030 -246 -365 -266 -392
-293 -392 -29 0 -60 30 -60 58 0 12 248 384 725 1087 123 182 224 336 225 343
0 22 -26 13 -48 -17 -12 -16 -97 -117 -189 -223 -92 -107 -247 -287 -344 -399
-232 -268 -223 -259 -257 -259 -35 0 -52 16 -52 52 0 21 46 80 213 270 254
290 513 588 546 629 17 21 21 33 14 40 -11 11 -66 -37 -347 -297 -72 -67 -309
-284 -526 -483 -422 -387 -429 -392 -466 -336 -21 32 -12 56 40 102 23 21 103
94 177 163 120 112 666 606 935 846 72 65 99 96 93 105 -6 11 -13 9 -36 -7
-15 -11 -100 -72 -188 -134 -88 -62 -239 -170 -335 -240 -327 -235 -437 -310
-458 -310 -28 0 -52 26 -52 55 0 28 25 50 205 177 72 50 245 173 385 273 140
100 288 203 328 230 66 44 82 62 67 77 -9 8 -228 -112 -1254 -690 -239 -134
-258 -143 -288 -131 -26 9 -41 55 -26 78 5 9 39 32 74 52 35 19 206 114 379
211 354 197 831 460 962 532 64 34 86 51 81 62 -3 8 -11 13 -17 10 -6 -2 -105
-43 -221 -91 -115 -48 -361 -150 -545 -227 -225 -93 -342 -137 -357 -133 -54
13 -51 80 4 108 31 16 219 93 638 262 264 107 436 177 443 181 2 2 0 9 -5 17
-7 12 -32 8 -158 -28 -82 -24 -375 -107 -649 -185 -275 -78 -574 -164 -665
-191 -91 -27 -172 -49 -180 -49 -48 0 -69 78 -29 104 13 8 226 71 473 141 248
69 603 169 790 221 187 53 348 98 358 100 19 6 24 34 5 34 -7 0 -110 -16 -228
-35 -578 -94 -910 -145 -944 -145 -44 0 -67 34 -48 74 13 29 1 26 322 76 146
23 391 61 544 86 154 24 290 44 302 44 13 0 26 5 30 11 18 30 -18 31 -363 15
-423 -20 -1176 -63 -1256 -72 -72 -8 -107 11 -107 56 0 50 24 57 240 69 107 6
215 13 240 16 25 3 270 14 545 25 648 26 685 29 685 45 0 15 -23 18 -290 40
-152 12 -302 22 -792 51 -59 3 -115 12 -124 18 -43 32 -1 110 54 101 15 -3
106 -9 202 -15 183 -12 775 -56 894 -67 63 -6 68 -5 64 13 -3 16 -29 24 -168
51 -195 38 -775 142 -1190 213 -200 35 -300 56 -312 67 -38 34 -12 93 40 93
15 0 90 -11 167 -24 77 -14 221 -39 320 -56 246 -43 1052 -197 1095 -210 48
-14 70 -13 70 5 0 17 -240 97 -709 236 -168 50 -336 100 -374 111 -72 22 -93
42 -83 84 11 42 40 49 115 26 36 -12 158 -48 271 -82 295 -88 706 -219 759
-242 35 -15 46 -16 53 -6 12 20 10 23 -19 35 -16 6 -140 61 -278 123 -310 138
-597 263 -960 415 -154 65 -286 123 -293 128 -15 12 -16 69 0 85 23 23 66 11
283 -82 243 -103 964 -419 1175 -515 89 -40 137 -58 144 -51 6 6 6 13 1 19 -6
5 -172 103 -370 217 -672 387 -659 379 -670 409 -8 24 -6 30 19 52 17 14 35
22 44 18 20 -7 589 -337 840 -487 163 -97 212 -118 212 -91 0 5 -10 14 -22 22
-13 8 -162 118 -333 246 -170 127 -467 346 -659 486 -192 140 -353 264 -359
276 -7 17 -6 28 7 48 31 47 56 36 271 -122 322 -236 889 -658 1028 -764 70
-55 129 -99 131 -99 2 0 6 6 9 14 6 14 -181 195 -671 649 -199 185 -213 204
-176 241 38 39 60 25 284 -187 560 -527 645 -605 657 -595 8 7 -68 103 -270
341 -546 643 -807 961 -807 984 0 30 26 53 60 53 25 0 56 -33 258 -277 127
-153 274 -330 327 -393 54 -63 131 -155 173 -205 297 -355 387 -450 374 -395
-3 14 -236 362 -481 720 -188 275 -200 300 -150 329 24 13 29 13 52 -2 14 -9
94 -119 177 -244 151 -226 488 -721 499 -735 3 -4 12 -4 19 1 10 6 -45 121
-221 462 -454 882 -537 1047 -537 1072 0 33 22 49 61 45 32 -3 36 -9 110 -153
287 -564 692 -1351 697 -1357 4 -4 13 -4 19 0 9 6 4 31 -22 97 -19 50 -97 259
-174 465 -76 206 -153 410 -170 453 -17 43 -31 86 -31 97 0 43 62 67 93 36 8
-8 58 -133 112 -278 54 -145 139 -373 190 -508 51 -135 97 -258 102 -275 10
-31 43 -48 43 -22 0 8 -40 180 -89 383 -235 972 -291 1210 -291 1228 0 49 62
73 94 37 11 -12 58 -192 131 -507 63 -269 149 -630 192 -801 68 -274 80 -313
97 -313 16 0 18 5 13 38 -4 20 -22 179 -42 352 -20 173 -47 406 -60 517 -31
256 -31 258 0 279 32 21 72 7 79 -28 3 -13 19 -144 36 -293 17 -148 46 -393
65 -544 19 -151 35 -281 35 -288 0 -7 9 -13 21 -13 20 0 20 0 18 558 -1 306
-2 677 -1 825 2 252 3 268 22 287 24 24 47 25 72 3z"/>
<path d="M5013 6090 c-354 -38 -675 -243 -844 -538 -107 -188 -145 -334 -143
-562 1 -132 5 -170 27 -252 112 -423 435 -731 860 -819 86 -18 124 -20 242
-16 77 3 169 13 205 22 609 148 972 747 820 1350 -26 101 -114 280 -181 368
-241 318 -614 487 -986 447z"/>
</g>
</svg>
